<?xml version="1.0" ?><svg id="Outline" viewBox="0 0 512 512" xmlns="http://www.w3.org/2000/svg"><defs><style>.cls-1{fill:#262626;}</style></defs><path class="cls-1" d="M384.83,203.66h-5.51a123.68,123.68,0,0,0-246.63,0h-5.52a26,26,0,0,0-26,26v165.1a26,26,0,0,0,26,26H384.83a26,26,0,0,0,26-26V229.63A26,26,0,0,0,384.83,203.66ZM256,112.19a101.14,101.14,0,0,1,100.55,91.47H155.45A101.14,101.14,0,0,1,256,112.19ZM388.13,394.73a3.3,3.3,0,0,1-3.3,3.3H127.17a3.3,3.3,0,0,1-3.3-3.3V229.63a3.3,3.3,0,0,1,3.3-3.29H384.83a3.3,3.3,0,0,1,3.3,3.29Z"/><path class="cls-1" d="M255.61,250.81a40.88,40.88,0,0,0-11,80.27v29a11.34,11.34,0,1,0,22.68,0V330.86a40.89,40.89,0,0,0-11.73-80.05Zm0,59.09a18.21,18.21,0,1,1,18.21-18.2A18.22,18.22,0,0,1,255.61,309.9Z"/></svg>